<svg preserveAspectRatio="none" overflow="visible" style="display: block;" width="600" height="300" viewBox="0 0 600 300" fill="none" xmlns="http://www.w3.org/2000/svg">
<path id="Deco/U arc" d="M600 3.05176e-05C600 39.3966 592.24 78.4074 577.164 114.805C562.087 151.203 539.99 184.274 512.132 212.132C484.274 239.99 451.203 262.087 414.805 277.164C378.407 292.24 339.397 300 300 300C260.603 300 221.593 292.24 185.195 277.164C148.797 262.087 115.726 239.99 87.868 212.132C60.0104 184.274 37.9125 151.203 22.8361 114.805C7.75972 78.4074 -3.44416e-06 39.3966 0 4.29074e-06L120 1.47815e-05C120 23.638 124.656 47.0444 133.702 68.883C142.748 90.7216 156.006 110.565 172.721 127.279C189.435 143.994 209.278 157.252 231.117 166.298C252.956 175.344 276.362 180 300 180C323.638 180 347.044 175.344 368.883 166.298C390.722 157.253 410.565 143.994 427.279 127.279C443.994 110.565 457.252 90.7217 466.298 68.8831C475.344 47.0444 480 23.638 480 3.05176e-05H600Z" fill="#F7F2A6"/>
</svg>
